<svg width="66" height="18" viewBox="0 0 66 18" fill="none" xmlns="http://www.w3.org/2000/svg">
<path opacity="0.75" d="M17.2643 11.5797C17.7953 10.1424 18.0035 8.59208 17.7849 7.07259C17.4101 4.46484 16.0045 2.45255 13.3601 1.03573C9.9973 -0.791754 5.43719 -0.144946 2.70946 2.53468C1.19984 4.02336 0.283657 6.48739 1.50176 8.22247C2.38672 9.475 4.08374 9.93705 5.08322 11.0972C6.33255 12.5551 6.23885 14.8035 7.4778 16.2614C8.58135 17.555 10.5595 17.9143 12.1837 17.3804C13.5475 16.939 16.0045 14.978 17.2643 11.5797Z" fill="#5493F7"/>
<path opacity="0.8" d="M12.1819 17.3905C13.5458 16.949 16.0029 14.9881 17.2626 11.5897C17.7936 10.1524 18.0851 8.76639 17.7831 7.08263C16.7733 1.52831 9.87068 8.67401 8.67341 9.40291C6.32046 10.83 5.67497 13.9716 7.35118 16.1379C7.39283 16.1893 7.42405 16.2406 7.46571 16.2817C8.56925 17.565 10.5578 17.9141 12.1819 17.3905Z" fill="#2043B5"/>
<path opacity="0.7" d="M14.327 1.89986C12.8694 1.37626 11.2973 1.17093 9.75643 1.38653C7.11197 1.75613 5.0714 3.14214 3.63465 5.74992C1.78146 9.06607 2.43737 13.5629 5.15469 16.2528C6.6643 17.7415 9.16301 18.645 10.9225 17.4438C12.1926 16.5711 12.6612 14.8976 13.8376 13.912C15.316 12.68 17.5961 12.7724 19.0744 11.5506C20.3863 10.4624 20.7507 8.51169 20.2093 6.91006C19.7616 5.56509 17.773 3.14214 14.327 1.89986Z" fill="#2566E4"/>
<path d="M11.3076 12.8762L9.96437 10.2064L9.06891 11.0176L8.66283 12.8762H7.1322L8.60037 6.03758H10.1414L9.56872 8.69706L12.5259 6.03758H14.6605L11.1722 9.13855L13.1506 12.8762H11.3076Z" fill="white"/>
<path d="M32.557 15.097L29.9021 10.0458L28.1114 11.6474L27.3826 15.1073H24.9777L27.5909 2.92064H29.9959L28.8923 8.0643L34.6809 2.92064H37.9916L31.8074 8.37228L35.3785 15.097H32.557Z" fill="black"/>
<path d="M43.1779 6.63352H45.4268L44.0108 13.2351C43.9068 13.7279 43.8547 14.2412 43.8547 14.7648C43.8547 14.8777 43.8651 14.9906 43.8755 15.0933H41.7308C41.7204 15.0009 41.71 14.8674 41.71 14.6929C41.71 14.5389 41.7204 14.3336 41.7412 14.0564C41.1998 14.8469 40.4294 15.2473 39.4404 15.2473C38.4201 15.2473 37.608 14.888 37.0041 14.1693C36.4003 13.4506 36.0984 12.5574 36.0984 11.4794C36.0984 10.0421 36.5148 8.8511 37.3581 7.87579C38.191 6.91068 39.2321 6.41793 40.4815 6.41793C41.1894 6.41793 41.7412 6.54113 42.1473 6.77723C42.5533 7.01338 42.824 7.29059 42.9802 7.58832L43.1779 6.63352ZM40.6689 8.47124C39.9713 8.47124 39.4195 8.76896 39.0135 9.36447C38.6075 9.95992 38.3992 10.6376 38.3992 11.3973C38.3992 11.9825 38.545 12.4445 38.8573 12.773C39.1592 13.1015 39.5653 13.2761 40.0754 13.2761C40.6897 13.2761 41.2206 12.9989 41.6579 12.4548C42.0952 11.9106 42.3138 11.1817 42.3138 10.2782C42.3138 9.71351 42.1681 9.27208 41.8766 8.95379C41.5851 8.63551 41.179 8.47124 40.6689 8.47124ZM56.4003 2.64999L54.1306 13.2453C54.0264 13.7073 53.964 14.2001 53.9431 14.7442C53.9431 14.9393 53.9535 15.0625 53.964 15.1036H51.8505C51.8401 15.0009 51.8296 14.8572 51.8296 14.6724C51.8296 14.5184 51.8401 14.3233 51.8609 14.0667C51.3195 14.8572 50.5491 15.2576 49.56 15.2576C48.5397 15.2473 47.7276 14.888 47.1238 14.1796C46.52 13.4712 46.2181 12.578 46.2181 11.5C46.2181 10.0626 46.6345 8.87166 47.4778 7.8963C48.3107 6.93124 49.3518 6.43843 50.6011 6.43843C51.7984 6.43843 52.6105 6.80804 53.0373 7.537L54.0785 2.64999H56.4003ZM50.7781 8.47124C50.0806 8.47124 49.5288 8.76896 49.1227 9.36447C48.7167 9.95992 48.5085 10.6376 48.5085 11.3973C48.5085 11.9825 48.6543 12.4445 48.9666 12.773C49.2685 13.1015 49.6746 13.2761 50.1847 13.2761C50.799 13.2761 51.3299 12.9989 51.7672 12.4548C52.2044 11.9106 52.4231 11.1817 52.4231 10.2782C52.4231 9.71351 52.2774 9.27208 51.9858 8.95379C51.6943 8.63551 51.2883 8.47124 50.7781 8.47124ZM65.0624 10.309C65.0624 11.695 64.6042 12.886 63.6982 13.8716C62.7927 14.8572 61.6475 15.35 60.263 15.35C59.0864 15.35 58.1387 14.9701 57.4204 14.2207C56.7021 13.4711 56.3377 12.5369 56.3377 11.4075C56.3377 9.93941 56.8064 8.7382 57.7327 7.7834C58.6595 6.83885 59.8048 6.36655 61.1476 6.36655C62.3345 6.36655 63.2822 6.73616 63.9901 7.48562C64.7085 8.23514 65.0624 9.17964 65.0624 10.309ZM60.9813 8.46099C60.3146 8.46099 59.7631 8.7382 59.3257 9.28233C58.8883 9.82646 58.6595 10.504 58.6595 11.3151C58.6595 11.9106 58.8258 12.3829 59.1485 12.7422C59.4717 13.1015 59.8986 13.2761 60.4188 13.2761C61.023 13.2761 61.5641 13.0194 62.0327 12.5061C62.5014 11.9928 62.7406 11.2946 62.7406 10.4014C62.7406 9.79565 62.5842 9.3234 62.2615 8.9743C61.9389 8.62526 61.5119 8.46099 60.9813 8.46099Z" fill="black"/>
</svg>
