<svg width="100" height="18" viewBox="0 0 100 18" fill="none" xmlns="http://www.w3.org/2000/svg">
<path d="M16.1372 5.53527C16.6883 5.53527 17.2271 5.37295 17.6854 5.06884C18.1436 4.76473 18.5008 4.33248 18.7117 3.82677C18.9226 3.32105 18.9778 2.76457 18.8703 2.2277C18.7628 1.69083 18.4974 1.19768 18.1077 0.810623C17.7179 0.423562 17.2214 0.15997 16.6808 0.0531806C16.1403 -0.0536092 15.58 0.00119917 15.0708 0.210675C14.5616 0.420151 14.1264 0.774886 13.8202 1.23002C13.514 1.68516 13.3505 2.22025 13.3505 2.76764C13.3505 3.13109 13.4226 3.491 13.5626 3.82679C13.7026 4.16259 13.9079 4.4677 14.1667 4.7247C14.4254 4.9817 14.7326 5.18557 15.0707 5.32464C15.4088 5.46372 15.7712 5.5353 16.1372 5.53527ZM7.59256 18C6.24913 18 4.93587 17.6043 3.81885 16.8631C2.70182 16.1218 1.83121 15.0682 1.3171 13.8355C0.802991 12.6028 0.668477 11.2464 0.930569 9.93778C1.19266 8.62916 1.83959 7.42711 2.78954 6.48365C3.73949 5.54019 4.9498 4.89769 6.26742 4.63739C7.58504 4.37709 8.95078 4.51069 10.192 5.02129C11.4331 5.53189 12.494 6.39656 13.2403 7.50596C13.9867 8.61535 14.3851 9.91965 14.3851 11.2539C14.3851 12.1398 14.2094 13.0171 13.8681 13.8356C13.5267 14.654 13.0264 15.3977 12.3956 16.0242C11.7649 16.6506 11.0161 17.1475 10.192 17.4865C9.36785 17.8256 8.48457 18 7.59256 18Z" fill="#7D00FF"/>
<path d="M92.8531 14.9648L89.3279 6.92249H91.6884L94.0959 12.6903L96.8783 6.92249H99.1998L93.7128 18H91.3524L92.8531 14.9648ZM84.2693 13.2996C84.4776 13.2525 84.6787 13.1781 84.8672 13.0784C85.0495 12.982 85.2188 12.8634 85.3714 12.7252C85.5237 12.5866 85.6553 12.4272 85.7622 12.2516C85.8742 12.0672 85.9609 11.8688 86.0201 11.6617C86.0842 11.4356 86.1158 11.2017 86.1139 10.9669C86.1161 10.7295 86.0845 10.493 86.0201 10.2644C85.9609 10.0572 85.8742 9.85879 85.7622 9.67439C85.6547 9.49815 85.5231 9.33749 85.3714 9.19698C85.2207 9.05757 85.051 8.93997 84.8672 8.84765C84.6773 8.75275 84.4766 8.68107 84.2693 8.63418C84.0514 8.58457 83.8285 8.55983 83.6049 8.56043C83.3826 8.55968 83.161 8.58442 82.9444 8.63418C82.7397 8.68109 82.5415 8.75278 82.3543 8.84765C82.1713 8.94122 82.0018 9.0587 81.8502 9.19698C81.6965 9.33672 81.5635 9.49746 81.4554 9.67439C81.3436 9.8584 81.2582 10.057 81.2014 10.2644C81.1397 10.4934 81.1094 10.7298 81.1115 10.9669C81.1097 11.2015 81.14 11.4352 81.2014 11.6617C81.2581 11.8691 81.3436 12.0676 81.4554 12.2516C81.5629 12.4279 81.6959 12.5874 81.8502 12.7252C82.0036 12.8622 82.1728 12.9808 82.3543 13.0784C82.5401 13.1781 82.7386 13.2525 82.9444 13.2996C83.161 13.3495 83.3826 13.3742 83.6049 13.3734C83.8285 13.3741 84.0514 13.3493 84.2693 13.2996ZM81.8892 15.1006C81.5273 15.0091 81.1791 14.8708 80.8536 14.6892C80.2195 14.335 79.6961 13.8139 79.3412 13.1832C79.1583 12.8571 79.019 12.5087 78.9269 12.1469C78.7341 11.3693 78.7341 10.5568 78.9269 9.77921C79.0186 9.41844 79.1579 9.07128 79.3412 8.74676C79.6978 8.11831 80.2208 7.59883 80.8536 7.24466C81.1792 7.06305 81.5274 6.92473 81.8892 6.83323C82.2762 6.73575 82.6741 6.68749 83.0734 6.68962C83.2889 6.68914 83.5043 6.7021 83.7182 6.72843C83.915 6.75262 84.1096 6.79154 84.3005 6.84487C84.4775 6.89475 84.6511 6.95568 84.8203 7.0273C84.9787 7.09423 85.1316 7.17339 85.2775 7.26407C85.4148 7.34942 85.5431 7.44824 85.6605 7.55905C85.7704 7.6626 85.8723 7.77418 85.9654 7.89285V6.92249H88.2086V15.0113H85.9654V14.041C85.8219 14.2197 85.6579 14.3812 85.4768 14.5223C85.2766 14.6784 85.0573 14.8088 84.8242 14.9104C84.5649 15.0235 84.2935 15.1068 84.0152 15.1588C83.7047 15.2172 83.3893 15.2458 83.0734 15.2442C82.6741 15.2463 82.2762 15.1981 81.8892 15.1006ZM73.7454 8.97187C74.0667 8.97771 74.3873 8.94117 74.6989 8.86319C74.9418 8.80225 75.1685 8.68969 75.3633 8.53327C75.5392 8.3876 75.6739 8.199 75.7541 7.98599C75.8416 7.74464 75.884 7.48946 75.8792 7.233C75.8842 6.97778 75.8418 6.72384 75.7541 6.48389C75.6736 6.27319 75.5389 6.08715 75.3633 5.94437C75.1676 5.79028 74.9411 5.67916 74.6989 5.61834C74.3873 5.54045 74.0667 5.50391 73.7454 5.50966H71.5412V8.97186L73.7454 8.97187ZM69.2198 3.60001H73.9642C74.7094 3.60001 75.3555 3.69057 75.9026 3.87171C76.4497 4.05284 76.9005 4.30384 77.2548 4.6247C77.6073 4.94284 77.8791 5.33915 78.0482 5.78136C78.2257 6.24754 78.3144 6.74239 78.31 7.24076C78.3156 7.73797 78.2268 8.23177 78.0482 8.69629C77.8764 9.13482 77.6048 9.52801 77.2548 9.84518C76.9005 10.1687 76.4497 10.421 75.9026 10.6021C75.3555 10.7833 74.7094 10.8739 73.9642 10.8738H71.5412V15.0113H69.2198V3.60001ZM59.2515 6.92249H61.4791V7.89284C61.6166 7.7045 61.7797 7.53599 61.9637 7.39213C62.1585 7.24036 62.3711 7.11263 62.5969 7.01176C62.8456 6.90129 63.1067 6.82051 63.3746 6.77111C63.6722 6.71553 63.9745 6.68823 64.2773 6.6896C64.7489 6.6829 65.2178 6.76182 65.6608 6.92249C66.0555 7.0669 66.4131 7.2962 66.7082 7.59397C67.0046 7.90256 67.2288 8.27232 67.3647 8.67688C67.5216 9.14207 67.5982 9.63023 67.5914 10.1208V15.0113H65.3638V10.6952C65.3691 10.3797 65.3243 10.0653 65.2309 9.76367C65.1536 9.51464 65.0245 9.28454 64.8518 9.08831C64.6859 8.90602 64.4781 8.76621 64.2461 8.68076C63.9831 8.58629 63.705 8.54026 63.4254 8.54491C63.1445 8.5405 62.8652 8.58652 62.6008 8.68076C62.3673 8.76549 62.158 8.90536 61.9911 9.08831C61.8185 9.28454 61.6893 9.51464 61.612 9.76367C61.5186 10.0653 61.4738 10.3797 61.4791 10.6952V15.0113H59.2515V6.92249ZM53.7699 13.2763C53.9825 13.2253 54.1884 13.1497 54.3834 13.0512C54.569 12.957 54.739 12.8353 54.8876 12.6902C55.0348 12.5471 55.1622 12.3853 55.2667 12.2089C55.3731 12.0273 55.4522 11.8312 55.5012 11.6267C55.5543 11.4055 55.5806 11.1788 55.5793 10.9514C55.5807 10.7252 55.5544 10.4997 55.5012 10.2799C55.4026 9.87465 55.1898 9.50573 54.8876 9.21638C54.737 9.07259 54.5674 8.94984 54.3834 8.85152C54.1901 8.74848 53.9837 8.67147 53.7699 8.62252C53.5379 8.56962 53.3005 8.54357 53.0625 8.54489C52.8271 8.54384 52.5923 8.56989 52.363 8.62252C52.1502 8.67101 51.9451 8.74805 51.7533 8.85152C51.571 8.95051 51.4027 9.07321 51.2531 9.21638C51.1056 9.35734 50.9805 9.5196 50.8818 9.69767C50.781 9.88061 50.7022 10.0747 50.6473 10.276C50.5883 10.4963 50.5593 10.7234 50.5613 10.9514C50.56 11.1793 50.5889 11.4064 50.6473 11.6267C50.7008 11.8297 50.7796 12.0253 50.8818 12.209C50.9817 12.3862 51.1067 12.5483 51.2531 12.6903C51.4008 12.8347 51.5694 12.9563 51.7533 13.0512C51.9467 13.1502 52.1514 13.2258 52.3629 13.2764C52.5919 13.3316 52.8268 13.359 53.0625 13.3579C53.3007 13.3593 53.5383 13.3319 53.7699 13.2764M51.7494 15.0967C51.3474 15.0038 50.9579 14.8644 50.5887 14.6814C50.2414 14.5095 49.9193 14.2914 49.6312 14.0332C49.352 13.7823 49.1099 13.4936 48.9121 13.1754C48.7116 12.8516 48.5577 12.5014 48.4548 12.1352C48.2412 11.3603 48.2412 10.5425 48.4548 9.76756C48.5572 9.4024 48.7112 9.05349 48.9121 8.73123C49.1113 8.41411 49.3533 8.12551 49.6312 7.87345C49.9185 7.61322 50.2407 7.39377 50.5887 7.22137C50.9579 7.03843 51.3475 6.89904 51.7494 6.80606C52.6189 6.6094 53.5217 6.6094 54.3912 6.80606C54.7909 6.89821 55.1779 7.03764 55.5441 7.22137C55.8906 7.39633 56.2124 7.61555 56.5016 7.87345C56.7838 8.12459 57.0297 8.41325 57.2324 8.73123C57.4356 9.05281 57.5909 9.40186 57.6936 9.76756C57.9072 10.5425 57.9072 11.3603 57.6936 12.1352C57.5905 12.502 57.4352 12.8523 57.2324 13.1754C57.0312 13.4944 56.7851 13.7833 56.5016 14.0332C56.2117 14.2891 55.8899 14.5069 55.5441 14.6814C55.1792 14.8648 54.7934 15.0042 54.3951 15.0967C53.5243 15.2934 52.6202 15.2934 51.7494 15.0967ZM43.0569 13.2763C43.2696 13.2253 43.4755 13.1497 43.6705 13.0512C43.856 12.957 44.026 12.8353 44.1746 12.6902C44.3218 12.5471 44.4492 12.3853 44.5537 12.2089C44.6603 12.0274 44.7393 11.8312 44.7882 11.6267C44.8413 11.4055 44.8676 11.1788 44.8663 10.9514C44.8677 10.7252 44.8415 10.4997 44.7882 10.2799C44.6896 9.87465 44.4768 9.50573 44.1746 9.21638C44.024 9.07259 43.8544 8.94984 43.6705 8.85152C43.4771 8.74847 43.2707 8.67145 43.0569 8.62252C42.8249 8.56962 42.5875 8.54357 42.3495 8.54489C42.1141 8.54385 41.8794 8.5699 41.65 8.62252C41.4372 8.67101 41.2321 8.74805 41.0403 8.85152C40.858 8.95054 40.6898 9.07324 40.5401 9.21638C40.3927 9.35734 40.2675 9.5196 40.1688 9.69767C40.0681 9.88064 39.9894 10.0747 39.9343 10.276C39.8753 10.4963 39.8464 10.7234 39.8483 10.9514C39.847 11.1793 39.8759 11.4063 39.9343 11.6267C39.9879 11.8297 40.0667 12.0253 40.1688 12.2089C40.2687 12.3862 40.3938 12.5483 40.5401 12.6902C40.6878 12.8346 40.8564 12.9563 41.0403 13.0512C41.2338 13.1502 41.4384 13.2257 41.65 13.2763C41.879 13.3316 42.1139 13.3589 42.3495 13.3578C42.5878 13.3592 42.8253 13.3319 43.0569 13.2763ZM41.0364 15.0967C40.6345 15.0038 40.2449 14.8644 39.8757 14.6814C39.5284 14.5095 39.2063 14.2914 38.9182 14.0332C38.6391 13.7824 38.397 13.4936 38.1991 13.1755C37.9986 12.8516 37.8447 12.5015 37.7419 12.1353C37.5282 11.3603 37.5282 10.5426 37.7419 9.7676C37.8443 9.40244 37.9982 9.05353 38.1991 8.73127C38.3984 8.41417 38.6403 8.12558 38.9182 7.87349C39.2055 7.61328 39.5278 7.39383 39.8757 7.22141C40.245 7.03847 40.6345 6.89908 41.0364 6.8061C41.9059 6.60944 42.8088 6.60944 43.6783 6.8061C44.0779 6.89823 44.465 7.03767 44.8312 7.22141C45.1776 7.39635 45.4995 7.61557 45.7886 7.87349C46.0709 8.12461 46.3168 8.41327 46.5195 8.73127C46.7227 9.05283 46.878 9.40188 46.9806 9.7676C47.1943 10.5426 47.1943 11.3603 46.9806 12.1353C46.8776 12.502 46.7223 12.8523 46.5195 13.1755C46.3182 13.4945 46.0721 13.7834 45.7886 14.0332C45.4987 14.2891 45.1769 14.507 44.8312 14.6814C44.4662 14.8648 44.0805 15.0042 43.6822 15.0967C42.8114 15.2934 41.9072 15.2934 41.0364 15.0967ZM23.4546 3.60001H25.7994L29.8091 9.68603L33.8345 3.60001H36.1794V15.0113H33.8579V7.18642L30.5282 12.2322H29.1057L25.776 7.18642V15.0113H23.4546V3.60001Z" fill="#13182C"/>
</svg>
