<svg width="90" height="18" viewBox="0 0 90 18" fill="none" xmlns="http://www.w3.org/2000/svg">
<path fill-rule="evenodd" clip-rule="evenodd" d="M18.5625 9C18.5625 13.9706 14.5331 18 9.5625 18C4.59194 18 0.5625 13.9706 0.5625 9C0.5625 4.02944 4.59194 0 9.5625 0C14.5331 0 18.5625 4.02944 18.5625 9ZM12.7034 5.90777L15.2454 8.44985C15.3738 8.58128 15.4453 8.75803 15.4442 8.94177C15.4432 9.12551 15.3697 9.30143 15.2398 9.43138C15.1099 9.56133 14.934 9.63484 14.7503 9.63597C14.5666 9.6371 14.3898 9.56576 14.2583 9.43741L12.9038 8.08041V11.6029C12.9038 11.7881 12.8302 11.9657 12.6993 12.0966C12.5684 12.2276 12.3908 12.3011 12.2056 12.3011C12.0204 12.3011 11.8428 12.2276 11.7119 12.0966C11.5809 11.9657 11.5074 11.7881 11.5074 11.6029V8.09131L7.49843 12.1028C7.48586 12.117 7.47118 12.1296 7.45651 12.1422L7.4565 12.1422L7.44937 12.1485C7.42548 12.1681 7.40026 12.186 7.37389 12.2022L7.35795 12.2114C7.33103 12.2273 7.30301 12.2414 7.27408 12.2533C7.25379 12.2618 7.23308 12.2692 7.21202 12.2755H7.20867C7.18938 12.2814 7.16967 12.286 7.14996 12.2902H7.14199C7.12439 12.294 7.10637 12.2961 7.08834 12.2982L7.08831 12.2982H7.07448C7.05575 12.2999 7.03687 12.3007 7.01786 12.3007H7.00738C6.98474 12.3007 6.96209 12.2994 6.93945 12.2973H6.93651C6.82351 12.2872 6.7147 12.2496 6.61949 12.1879C6.60103 12.1741 6.58258 12.1602 6.56497 12.146C6.54661 12.1312 6.52911 12.1154 6.51255 12.0986L3.87738 9.46341C3.75158 9.33147 3.68236 9.15556 3.68453 8.97327C3.6867 8.79098 3.76007 8.61677 3.88898 8.48786C4.01789 8.35896 4.1921 8.28558 4.37439 8.28341C4.55668 8.28125 4.73259 8.35046 4.86452 8.47627L6.30791 9.91966V6.39715C6.30791 6.21197 6.38147 6.03438 6.51241 5.90344C6.64335 5.7725 6.82095 5.69894 7.00612 5.69894C7.1913 5.69894 7.36889 5.7725 7.49983 5.90344C7.63077 6.03438 7.70433 6.21197 7.70433 6.39715V9.91966L11.6579 5.96564C11.7644 5.82901 11.9184 5.73742 12.0893 5.70907C12.2602 5.68071 12.4356 5.71766 12.5805 5.81258C12.5868 5.81636 12.5926 5.81971 12.5985 5.8239C12.6119 5.83271 12.6245 5.84235 12.6371 5.85242C12.655 5.86549 12.6722 5.87949 12.6887 5.89435L12.6987 5.90316L12.7034 5.90777Z" fill="#1461DB"/>
<path d="M23.0624 4.87625H26.9519V15.0362H29.2817V4.87625H33.1712V2.70001H23.0624V4.87625Z" fill="#13182C"/>
<path d="M38.2761 5.76281C38.0003 5.78194 37.7273 5.83078 37.462 5.90847C37.2064 5.98282 36.9618 6.09057 36.7345 6.22892C36.4485 6.39585 36.1981 6.61736 35.9975 6.88085C35.9029 7.00592 35.8171 7.13747 35.7408 7.27452V5.78407H33.6851V15.0362H36.0361V10.3074C36.0299 9.98293 36.0775 9.65966 36.177 9.35077C36.2672 9.0774 36.4137 8.82598 36.6071 8.61278C36.8005 8.39958 37.0365 8.22934 37.2998 8.11305C37.5892 7.9776 37.9014 7.89748 38.2202 7.87685C38.5212 7.84703 38.8251 7.87373 39.1162 7.95558V5.78407C38.8375 5.74947 38.5562 5.74235 38.2761 5.76281Z" fill="#13182C"/>
<path d="M47.9568 7.20602C47.6537 6.60973 47.1412 6.14629 46.5175 5.90453C45.884 5.65257 45.1585 5.5266 44.3413 5.5266C43.228 5.5266 42.3485 5.76674 41.7029 6.24702C41.0703 6.70802 40.6069 7.36427 40.384 8.11462L42.491 8.7823C42.6401 8.35923 42.8999 8.06528 43.2705 7.90046C43.6058 7.7427 43.9708 7.6579 44.3413 7.65166C44.9586 7.65166 45.3984 7.78026 45.6609 8.03746C45.8664 8.23824 45.9892 8.53192 46.0333 8.91142C45.6396 8.97047 45.2656 9.02638 44.9153 9.07755C44.3163 9.16626 43.7796 9.25917 43.3051 9.35628C42.8892 9.43776 42.4798 9.54933 42.08 9.69011C41.6438 9.83898 41.2408 10.0714 40.8935 10.3743C40.6087 10.6317 40.3898 10.9535 40.2549 11.3128C40.1202 11.6891 40.0535 12.0864 40.0581 12.486C40.0526 12.9787 40.1752 13.4643 40.414 13.8954C40.6572 14.3294 41.0198 14.6846 41.4588 14.9189C41.9186 15.1735 42.4797 15.3005 43.1421 15.3C43.9421 15.3 44.6032 15.1614 45.1255 14.8843C45.574 14.6342 45.9709 14.301 46.2947 13.9024V15.0433H48.3339V9.38147C48.3357 8.99845 48.3184 8.61558 48.282 8.2343C48.2424 7.87347 48.1319 7.52402 47.9568 7.20602ZM45.7806 12.2262C45.6845 12.404 45.5651 12.5682 45.4255 12.7143C45.2249 12.9284 44.9869 13.104 44.7231 13.2324C44.385 13.3935 44.0133 13.4712 43.639 13.4592C43.4021 13.465 43.1665 13.4244 42.9453 13.3395C42.7647 13.2705 42.6084 13.1501 42.4957 12.9931C42.3875 12.8327 42.3324 12.6424 42.3382 12.449C42.3363 12.3031 42.3704 12.1589 42.4375 12.0293C42.5129 11.8921 42.6181 11.7735 42.7453 11.6821C42.9155 11.5602 43.1007 11.461 43.2965 11.3869C43.5233 11.3045 43.755 11.2358 43.9901 11.1814C44.2526 11.1184 44.5982 11.0483 45.0271 10.9711C45.3003 10.9223 45.6341 10.8641 46.0152 10.7995C46.0105 10.964 46.0034 11.1412 45.9908 11.3506C45.9782 11.6534 45.9068 11.9507 45.7806 12.2262Z" fill="#13182C"/>
<path d="M58.998 7.99022C58.8844 7.56889 58.7007 7.16965 58.4548 6.8092C58.1806 6.41556 57.8144 6.09497 57.3879 5.8754C56.9312 5.63027 56.3402 5.50771 55.6148 5.50771C54.7067 5.50771 53.9543 5.70454 53.3575 6.09822C53.0837 6.27913 52.8347 6.49483 52.6166 6.73991V5.78407H50.5435V15.0362H52.9055V10.342C52.9055 9.76466 52.9695 9.30195 53.0976 8.95395C53.2257 8.60594 53.391 8.34191 53.5937 8.16187C53.7762 7.99154 53.9963 7.86665 54.2361 7.79733C54.4451 7.73713 54.6612 7.70535 54.8786 7.70284C55.3752 7.70284 55.7591 7.81438 56.0305 8.03747C56.2988 8.25523 56.502 8.5426 56.6179 8.86812C56.7349 9.18646 56.807 9.51957 56.832 9.85782C56.8551 10.1859 56.8664 10.4557 56.8659 10.6672V15.0362H59.2279V9.84444C59.2279 9.68697 59.2169 9.44525 59.1941 9.10747C59.1645 8.72967 59.0988 8.35555 58.998 7.99022Z" fill="#13182C"/>
<path d="M67.724 10.1381C67.2978 9.89663 66.7338 9.68405 66.032 9.50033C65.3124 9.31767 64.777 9.16912 64.4258 9.05469C64.0747 8.94026 63.8434 8.82898 63.7322 8.72085C63.6776 8.66909 63.6345 8.60648 63.6056 8.53705C63.5767 8.46762 63.5627 8.39291 63.5645 8.31773C63.5645 8.04924 63.6944 7.84532 63.9542 7.70123C64.214 7.55715 64.5589 7.50203 64.9864 7.53038C65.4263 7.5645 65.7748 7.68155 66.032 7.88154C66.1584 7.97918 66.2633 8.1019 66.3399 8.24201C66.4166 8.38211 66.4635 8.53656 66.4777 8.69566L68.8594 8.26655C68.7892 7.73022 68.5677 7.22497 68.2209 6.80995C67.8547 6.38458 67.3877 6.05783 66.8627 5.85962C66.2473 5.62672 65.5931 5.51316 64.9352 5.52499C64.1873 5.52499 63.5377 5.64362 62.9865 5.88087C62.4712 6.08911 62.0261 6.44045 61.7039 6.89341C61.3959 7.34929 61.2374 7.88974 61.2504 8.43977C61.2378 8.8634 61.3413 9.28242 61.5496 9.6515C61.7496 9.98639 62.0753 10.2735 62.5267 10.5129C62.9781 10.7522 63.5818 10.9693 64.3376 11.164C65.0053 11.3414 65.4977 11.4842 65.8147 11.5923C66.1296 11.701 66.3359 11.8104 66.4273 11.9222C66.5235 12.0484 66.5721 12.2046 66.5643 12.3631C66.5695 12.4964 66.5408 12.6288 66.4809 12.7479C66.421 12.867 66.3319 12.969 66.2218 13.0442C65.9919 13.2064 65.6669 13.2875 65.247 13.2875C64.7326 13.2875 64.3085 13.1647 63.9747 12.919C63.6385 12.6709 63.4078 12.3056 63.3283 11.8955L60.9434 12.2639C61.0977 13.2292 61.5331 13.9762 62.2496 14.5047C62.9661 15.0333 63.907 15.2973 65.0722 15.2968C66.2832 15.2968 67.2312 15.0254 67.9162 14.4827C68.6011 13.9399 68.945 13.1935 68.9476 12.2435C68.9601 11.815 68.8597 11.3909 68.6563 11.0136C68.4605 10.6745 68.1497 10.3827 67.724 10.1381Z" fill="#13182C"/>
<path d="M78.2134 7.20602C77.9101 6.60987 77.3977 6.14648 76.7741 5.90453C76.1401 5.65257 75.4147 5.5266 74.5979 5.5266C73.4846 5.5266 72.6051 5.76674 71.9595 6.24702C71.3269 6.70818 70.8633 7.36434 70.6399 8.11462L72.7476 8.7823C72.8967 8.35923 73.1565 8.06528 73.5271 7.90046C73.8624 7.7427 74.2274 7.65789 74.5979 7.65166C75.2152 7.65166 75.6551 7.78026 75.9175 8.03746C76.123 8.23824 76.245 8.53192 76.2899 8.91142C75.8962 8.97047 75.5223 9.02638 75.1719 9.07755C74.573 9.16626 74.0363 9.25917 73.5617 9.35628C73.1458 9.43776 72.7364 9.54933 72.3366 9.69011C71.8401 9.87383 71.4446 10.1008 71.1501 10.3712C70.8653 10.6285 70.6464 10.9503 70.5115 11.3097C70.3764 11.6859 70.3097 12.0832 70.3147 12.4829C70.3092 12.9755 70.4319 13.4612 70.6706 13.8922C70.9137 14.3264 71.2763 14.6817 71.7154 14.9158C72.1752 15.1703 72.7363 15.2974 73.3988 15.2968C74.1987 15.2968 74.8598 15.1583 75.3821 14.8811C75.8307 14.6311 76.2275 14.2979 76.5513 13.8993V15.0402H78.5906V9.38147C78.5924 8.99845 78.575 8.61558 78.5386 8.2343C78.499 7.87347 78.3885 7.52402 78.2134 7.20602ZM76.0372 12.2262C75.9411 12.404 75.8217 12.5682 75.6821 12.7143C75.4815 12.9284 75.2435 13.104 74.9798 13.2324C74.6417 13.3935 74.2699 13.4712 73.8956 13.4592C73.6588 13.465 73.4231 13.4244 73.2019 13.3395C73.0214 13.2705 72.865 13.1501 72.7523 12.9931C72.6441 12.8327 72.589 12.6424 72.5949 12.449C72.5929 12.3031 72.627 12.1589 72.6941 12.0293C72.7693 11.8919 72.8745 11.7732 73.0019 11.6821C73.1721 11.5602 73.3574 11.461 73.5531 11.3869C73.7799 11.3044 74.0116 11.2357 74.2467 11.1814C74.5092 11.1184 74.8548 11.0483 75.2837 10.9711C75.5569 10.9223 75.8907 10.8641 76.2718 10.7995C76.2671 10.964 76.2592 11.1412 76.2474 11.3506C76.2341 11.6533 76.1628 11.9505 76.0372 12.2262Z" fill="#13182C"/>
<path d="M85.8546 10.4097L89.1953 5.78405H86.3168L83.1815 10.2389V2.7H80.8171L80.7998 15.0362H83.1815V10.5814L86.3853 15.0362H89.4182L85.8546 10.4097Z" fill="#13182C"/>
</svg>
